<svg width="230" height="200" viewBox="0 0 230 200" fill="none" xmlns="http://www.w3.org/2000/svg">
<path d="M99.6615 200C154.703 200 199.323 155.228 199.323 100C199.323 44.7715 154.703 0 99.6615 0C44.6199 0 0 44.7715 0 100C0 155.228 44.6199 200 99.6615 200Z" fill="#E9F0EF"/>
<path d="M157.121 136.168H114.472V192.475H157.121V136.168Z" fill="#93A19F"/>
<path d="M219.044 156.306H52.5499C46.5041 156.306 41.5938 151.389 41.5938 145.313V32.5005C41.5938 26.4341 46.4942 21.5071 52.5499 21.5071H219.044C225.09 21.5071 230 26.4241 230 32.5005V145.313C230 151.389 225.1 156.306 219.044 156.306Z" fill="#93A19F"/>
<path d="M230 146.082V134.529H41.5938V146.082C41.5938 151.729 46.1555 156.316 51.793 156.316H219.811C225.439 156.306 230 151.729 230 146.082Z" fill="#757D7C"/>
<path d="M215.269 123.976H56.3247C53.994 123.976 52.1016 122.077 52.1016 119.738V36.2882C52.1016 33.9496 53.994 32.0508 56.3247 32.0508H215.259C217.59 32.0508 219.482 33.9496 219.482 36.2882V119.738C219.492 122.087 217.6 123.976 215.269 123.976Z" fill="#D5EBE8"/>
<path d="M169.702 192.474H101.893C99.821 192.474 98.1377 190.786 98.1377 188.707V182.62C98.1377 180.542 99.821 178.853 101.893 178.853H169.692C171.763 178.853 173.447 180.542 173.447 182.62V188.707C173.456 190.786 171.773 192.474 169.702 192.474Z" fill="#757D7C"/>
<path d="M135.049 150.69H136.533C139.023 150.69 141.045 148.661 141.045 146.162V144.673C141.045 142.175 139.023 140.146 136.533 140.146H135.049C132.559 140.146 130.537 142.175 130.537 144.673V146.162C130.537 148.661 132.559 150.69 135.049 150.69Z" fill="#606665"/>
<path d="M137.709 113.172C136.195 113.172 134.97 111.943 134.97 110.424V44.4133C134.97 42.8942 136.195 41.6649 137.709 41.6649C139.223 41.6649 140.448 42.8942 140.448 44.4133V110.424C140.448 111.943 139.223 113.172 137.709 113.172Z" fill="#93A19F"/>
<path d="M169.632 92.5645C168.566 93.6339 166.823 93.6339 165.757 92.5645L153.616 80.3818C152.55 79.3125 152.55 77.5635 153.616 76.4942C154.681 75.4248 156.424 75.4248 157.49 76.4942L169.632 88.6768C170.707 89.7562 170.707 91.4952 169.632 92.5645Z" fill="#93A19F"/>
<path d="M169.632 64.1716C170.697 65.2409 170.697 66.9899 169.632 68.0592L157.49 80.2419C156.424 81.3113 154.681 81.3113 153.616 80.2419C152.55 79.1726 152.55 77.4236 153.616 76.3543L165.757 64.1716C166.823 63.0922 168.566 63.0922 169.632 64.1716Z" fill="#93A19F"/>
<path d="M192.56 92.5645C193.626 93.6339 195.369 93.6339 196.435 92.5645L208.576 80.3818C209.642 79.3125 209.642 77.5635 208.576 76.4942C207.51 75.4248 205.767 75.4248 204.701 76.4942L192.56 88.6768C191.494 89.7562 191.494 91.4952 192.56 92.5645Z" fill="#93A19F"/>
<path d="M192.56 64.1716C191.494 65.2409 191.494 66.9899 192.56 68.0592L204.701 80.2419C205.767 81.3113 207.51 81.3113 208.576 80.2419C209.642 79.1726 209.642 77.4236 208.576 76.3543L196.435 64.1716C195.369 63.0922 193.626 63.0922 192.56 64.1716Z" fill="#93A19F"/>
<path d="M186.425 63.542C187.849 64.0616 188.576 65.6407 188.058 67.0698L179.183 91.5452C178.666 92.9743 177.092 93.7039 175.668 93.1842C174.243 92.6645 173.516 91.0854 174.034 89.6563L182.919 65.181C183.427 63.7618 185 63.0223 186.425 63.542Z" fill="#93A19F"/>
<path d="M76.3847 51.3892C76.3847 52.9082 75.1596 54.1375 73.6456 54.1375H65.1795C63.6655 54.1375 62.4404 52.9082 62.4404 51.3892C62.4404 49.8701 63.6655 48.6408 65.1795 48.6408H73.6456C75.1596 48.6308 76.3847 49.8701 76.3847 51.3892Z" fill="#FCE389"/>
<path d="M79.8409 61.8029C79.8409 63.322 78.6158 64.5513 77.1018 64.5513H65.1795C63.6655 64.5513 62.4404 63.322 62.4404 61.8029C62.4404 60.2838 63.6655 59.0546 65.1795 59.0546H77.1018C78.6158 59.0546 79.8409 60.2838 79.8409 61.8029Z" fill="#79B9AE"/>
<path d="M74.9104 72.2167C74.9104 73.7358 73.6853 74.9651 72.1713 74.9651H65.1892C63.6753 74.9651 62.4502 73.7358 62.4502 72.2167C62.4502 70.6976 63.6753 69.4684 65.1892 69.4684H72.1713C73.6753 69.4684 74.9104 70.6976 74.9104 72.2167Z" fill="#79B9AE"/>
<path d="M78.7652 82.6303C78.7652 84.1494 77.54 85.3787 76.0261 85.3787H65.1795C63.6655 85.3787 62.4404 84.1494 62.4404 82.6303C62.4404 81.1112 63.6655 79.882 65.1795 79.882H76.0261C77.54 79.882 78.7652 81.1112 78.7652 82.6303Z" fill="#FCE389"/>
<path d="M81.8628 93.0441C81.8628 94.5632 80.6377 95.7925 79.1237 95.7925H65.1795C63.6655 95.7925 62.4404 94.5632 62.4404 93.0441C62.4404 91.525 63.6655 90.2958 65.1795 90.2958H79.1237C80.6377 90.2958 81.8628 91.525 81.8628 93.0441Z" fill="#93A19F"/>
<path d="M74.9104 103.458C74.9104 104.977 73.6853 106.206 72.1713 106.206H65.1892C63.6753 106.206 62.4502 104.977 62.4502 103.458C62.4502 101.939 63.6753 100.71 65.1892 100.71H72.1713C73.6753 100.71 74.9104 101.939 74.9104 103.458Z" fill="#F08181"/>
<path d="M101.644 51.3892C101.644 52.9082 100.419 54.1375 98.9048 54.1375H84.7215C83.2075 54.1375 81.9824 52.9082 81.9824 51.3892C81.9824 49.8701 83.2075 48.6408 84.7215 48.6408H98.9048C100.419 48.6308 101.644 49.8701 101.644 51.3892Z" fill="#79B9AE"/>
<path d="M121.285 51.3892C121.285 52.9082 120.06 54.1375 118.546 54.1375H109.98C108.466 54.1375 107.241 52.9082 107.241 51.3892C107.241 49.8701 108.466 48.6408 109.98 48.6408H118.546C120.06 48.6308 121.285 49.8701 121.285 51.3892Z" fill="#93A19F"/>
<path d="M97.9084 61.8029C97.9084 63.322 96.6833 64.5513 95.1694 64.5513H88.1873C86.6733 64.5513 85.4482 63.322 85.4482 61.8029C85.4482 60.2838 86.6733 59.0546 88.1873 59.0546H95.1694C96.6833 59.0546 97.9084 60.2838 97.9084 61.8029Z" fill="#F08181"/>
<path d="M124.811 61.8029C124.811 63.322 123.586 64.5513 122.072 64.5513H106.295C104.781 64.5513 103.556 63.322 103.556 61.8029C103.556 60.2838 104.781 59.0546 106.295 59.0546H122.072C123.586 59.0546 124.811 60.2838 124.811 61.8029Z" fill="#93A19F"/>
<path d="M99.9301 72.2167C99.9301 73.7358 98.705 74.9651 97.1911 74.9651H83.2469C81.7329 74.9651 80.5078 73.7358 80.5078 72.2167C80.5078 70.6976 81.7329 69.4684 83.2469 69.4684H97.1911C98.705 69.4684 99.9301 70.6976 99.9301 72.2167Z" fill="#FCE389"/>
<path d="M96.8332 82.6303C96.8332 84.1494 95.6081 85.3787 94.0942 85.3787H87.1121C85.5981 85.3787 84.373 84.1494 84.373 82.6303C84.373 81.1112 85.5981 79.882 87.1121 79.882H94.0942C95.6081 79.882 96.8332 81.1112 96.8332 82.6303Z" fill="#F08181"/>
<path d="M114.901 82.6303C114.901 84.1494 113.676 85.3787 112.162 85.3787H105.179C103.666 85.3787 102.44 84.1494 102.44 82.6303C102.44 81.1112 103.666 79.882 105.179 79.882H112.162C113.676 79.882 114.901 81.1112 114.901 82.6303Z" fill="#93A19F"/>
<path d="M105.528 93.0141C105.528 94.5332 104.302 95.7624 102.789 95.7624H95.8064C94.2925 95.7624 93.0674 94.5332 93.0674 93.0141C93.0674 91.495 94.2925 90.2657 95.8064 90.2657H102.789C104.302 90.2657 105.528 91.495 105.528 93.0141Z" fill="#FCE389"/>
<path d="M105.528 103.458C105.528 104.977 104.303 106.206 102.789 106.206H88.8445C87.3306 106.206 86.1055 104.977 86.1055 103.458C86.1055 101.939 87.3306 100.71 88.8445 100.71H102.789C104.303 100.71 105.528 101.939 105.528 103.458Z" fill="#79B9AE"/>
<path d="M123.596 103.458C123.596 104.977 122.371 106.206 120.857 106.206H113.875C112.361 106.206 111.136 104.977 111.136 103.458C111.136 101.939 112.361 100.71 113.875 100.71H120.857C122.371 100.71 123.596 101.939 123.596 103.458Z" fill="#93A19F"/>
</svg>
