<svg width="230" height="200" viewBox="0 0 230 200" fill="none" xmlns="http://www.w3.org/2000/svg">
<path d="M130.338 200C185.38 200 230 155.228 230 100C230 44.7715 185.38 0 130.338 0C75.2967 0 30.6768 44.7715 30.6768 100C30.6768 155.228 75.2967 200 130.338 200Z" fill="#E9F0EF"/>
<path d="M72.8779 192.477L115.527 192.477L115.527 136.171L72.8779 136.171L72.8779 192.477Z" fill="#93A19F"/>
<path d="M10.9562 156.306H177.45C183.496 156.306 188.407 151.389 188.407 145.313V32.5005C188.407 26.4341 183.506 21.5071 177.45 21.5071H10.9562C4.91036 21.5071 0 26.4241 0 32.5005V145.313C0 151.389 4.9004 156.306 10.9562 156.306Z" fill="#93A19F"/>
<path d="M0 146.082V134.529H188.407V146.082C188.407 151.729 183.845 156.316 178.207 156.316H10.1992C4.56176 156.306 0 151.729 0 146.082Z" fill="#757D7C"/>
<path d="M14.7309 123.976H173.665C175.996 123.976 177.888 122.077 177.888 119.738V36.2882C177.888 33.9496 175.996 32.0508 173.665 32.0508H14.7309C12.4002 32.0508 10.5078 33.9496 10.5078 36.2882V119.738C10.5078 122.087 12.4002 123.976 14.7309 123.976Z" fill="#D5EBE8"/>
<path d="M60.2989 192.474H128.098C130.17 192.474 131.853 190.785 131.853 188.707V182.62C131.853 180.542 130.17 178.853 128.098 178.853H60.2989C58.2272 178.853 56.5439 180.542 56.5439 182.62V188.707C56.5439 190.785 58.2272 192.474 60.2989 192.474Z" fill="#757D7C"/>
<path d="M94.9501 150.69H93.4661C90.976 150.69 88.9541 148.661 88.9541 146.162V144.673C88.9541 142.175 90.976 140.146 93.4661 140.146H94.9501C97.4402 140.146 99.4621 142.175 99.4621 144.673V146.162C99.4621 148.661 97.4402 150.69 94.9501 150.69Z" fill="#606665"/>
<path d="M98.0682 115.831H22.5203C21.0661 115.831 19.8809 114.641 19.8809 113.182V76.8139C19.8809 75.3548 21.0661 74.1655 22.5203 74.1655H98.0682C99.5224 74.1655 100.708 75.3548 100.708 76.8139V113.182C100.708 114.641 99.5323 115.831 98.0682 115.831Z" fill="#F6F6F6"/>
<path d="M35.1891 92.5544C36.6432 92.5544 37.8185 93.7337 37.8185 95.1929V107.276C37.8185 108.735 36.6432 109.914 35.1891 109.914C33.7349 109.914 32.5596 108.735 32.5596 107.276V95.1829C32.5596 93.7337 33.7349 92.5544 35.1891 92.5544Z" fill="#79B9AE"/>
<path d="M45.2486 83.4399C46.7028 83.4399 47.8781 84.6192 47.8781 86.0784V107.266C47.8781 108.725 46.7028 109.904 45.2486 109.904C43.7944 109.904 42.6191 108.725 42.6191 107.266V86.0784C42.6191 84.6192 43.7944 83.4399 45.2486 83.4399Z" fill="#79B9AE"/>
<path d="M55.2984 87.8673C56.7526 87.8673 57.9279 89.0466 57.9279 90.5057V107.266C57.9279 108.725 56.7526 109.904 55.2984 109.904C53.8442 109.904 52.6689 108.725 52.6689 107.266V90.5057C52.6789 89.0466 53.8542 87.8673 55.2984 87.8673Z" fill="#79B9AE"/>
<path d="M65.358 97.1917C66.8122 97.1917 67.9875 98.3709 67.9875 99.8301V107.276C67.9875 108.735 66.8122 109.914 65.358 109.914C63.9038 109.914 62.7285 108.735 62.7285 107.276V99.8301C62.7385 98.3709 63.9138 97.1917 65.358 97.1917Z" fill="#79B9AE"/>
<path d="M75.4185 103.058C76.8727 103.058 78.048 104.237 78.048 105.697V107.266C78.048 108.725 76.8727 109.904 75.4185 109.904C73.9644 109.904 72.7891 108.725 72.7891 107.266V105.697C72.799 104.237 73.9743 103.058 75.4185 103.058Z" fill="#79B9AE"/>
<path d="M85.4478 97.1917C86.902 97.1917 88.0773 98.3709 88.0773 99.8301V107.276C88.0773 108.735 86.902 109.914 85.4478 109.914C83.9937 109.914 82.8184 108.735 82.8184 107.276V99.8301C82.8184 98.3709 83.9937 97.1917 85.4478 97.1917Z" fill="#79B9AE"/>
<path d="M165.886 115.83H110.05C108.595 115.83 107.41 114.641 107.41 113.182V42.8542C107.41 41.3951 108.595 40.2058 110.05 40.2058H165.886C167.34 40.2058 168.526 41.3951 168.526 42.8542V113.172C168.526 114.641 167.34 115.83 165.886 115.83Z" fill="#F6F6F6"/>
<path d="M159.053 92.6245C159.053 94.0836 157.878 95.2629 156.424 95.2629H119.502C118.047 95.2629 116.872 94.0836 116.872 92.6245C116.872 91.1654 118.047 89.9861 119.502 89.9861H156.424C157.878 89.9861 159.053 91.1654 159.053 92.6245Z" fill="#F08181"/>
<path d="M137.969 83.3399C147.518 83.3399 155.259 75.5723 155.259 65.9903C155.259 56.4084 147.518 48.6407 137.969 48.6407C128.419 48.6407 120.678 56.4084 120.678 65.9903C120.678 75.5723 128.419 83.3399 137.969 83.3399Z" fill="#F08181"/>
<path d="M159.053 103.278C159.053 104.737 157.878 105.916 156.424 105.916H119.502C118.047 105.916 116.872 104.737 116.872 103.278C116.872 101.819 118.047 100.64 119.502 100.64H156.424C157.878 100.64 159.053 101.819 159.053 103.278Z" fill="#F08181"/>
<path d="M98.068 67.4396H22.8787C21.4245 67.4396 20.2393 66.2503 20.2393 64.7912V42.9343C20.2393 41.4752 21.4245 40.2859 22.8787 40.2859H98.068C99.5222 40.2859 100.707 41.4752 100.707 42.9343V64.7912C100.707 66.2603 99.5322 67.4396 98.068 67.4396Z" fill="#F6F6F6"/>
<path d="M46.4243 45.7724C47.49 46.7619 47.5597 48.4309 46.5737 49.4902L35.239 61.8128C34.2529 62.8822 32.5896 62.9521 31.5338 61.9627C30.4681 60.9733 30.3984 59.3043 31.3844 58.245L42.7191 45.9323C43.7051 44.853 45.3585 44.783 46.4243 45.7724Z" fill="#FCE389"/>
<path d="M43.5956 46.2322C44.7509 45.3527 46.3944 45.5826 47.2709 46.7419L51.8127 52.7483C52.6892 53.9076 52.4601 55.5566 51.3047 56.4361C50.1493 57.3156 48.5059 57.0857 47.6294 55.9264L43.0876 49.92C42.2111 48.7707 42.4402 47.1117 43.5956 46.2322Z" fill="#FCE389"/>
<path d="M47.9577 55.2969C47.3401 53.9777 47.9079 52.4086 49.2226 51.799L56.0254 48.6109C57.3402 47.9912 58.9039 48.5609 59.5115 49.8801C60.129 51.1993 59.5613 52.7684 58.2465 53.378L51.4437 56.5661C50.139 57.1857 48.5752 56.6161 47.9577 55.2969Z" fill="#FCE389"/>
<path d="M55.528 49.2705C56.514 48.2011 58.1774 48.1311 59.2332 49.1205L64.7511 54.2275C65.8168 55.2169 65.8865 56.8859 64.9005 57.9453C63.9144 59.0146 62.2511 59.0846 61.1953 58.0952L55.6774 52.9882C54.6116 52.0088 54.5419 50.3398 55.528 49.2705Z" fill="#FCE389"/>
<path d="M61.9318 58.405C60.6968 57.6354 60.3183 56.0164 61.0852 54.7772L66.135 46.6121C66.9019 45.3728 68.5155 44.993 69.7505 45.7626C70.9856 46.5321 71.3641 48.1511 70.5972 49.3904L65.5473 57.5555C64.7804 58.7948 63.1669 59.1745 61.9318 58.405Z" fill="#FCE389"/>
<path d="M67.1617 45.2528C66.096 46.2423 66.0263 47.9112 67.0123 48.9706L78.347 61.2832C79.3331 62.3526 80.9964 62.4225 82.0522 61.4331C83.1179 60.4437 83.1877 58.7747 82.2016 57.7154L70.8769 45.4028C69.8908 44.3334 68.2275 44.2734 67.1617 45.2528Z" fill="#FCE389"/>
<path d="M78.1178 60.5337C77.5003 59.2145 78.068 57.6454 79.3828 57.0358L86.1856 53.8477C87.5003 53.2281 89.0641 53.7977 89.6716 55.1169C90.2892 56.4361 89.7214 58.0052 88.4067 58.6148L81.6039 61.8029C80.2892 62.4225 78.7354 61.8529 78.1178 60.5337Z" fill="#FCE389"/>
</svg>
