<svg width="230" height="200" viewBox="0 0 230 200" fill="none" xmlns="http://www.w3.org/2000/svg">
<path d="M130.338 200C185.38 200 230 155.228 230 100C230 44.7715 185.38 0 130.338 0C75.2967 0 30.6768 44.7715 30.6768 100C30.6768 155.228 75.2967 200 130.338 200Z" fill="#E9F0EF"/>
<path d="M72.8779 192.477L115.527 192.477L115.527 136.171L72.8779 136.171L72.8779 192.477Z" fill="#93A19F"/>
<path d="M10.9562 156.306H177.45C183.496 156.306 188.407 151.389 188.407 145.313V32.5005C188.407 26.4341 183.506 21.5071 177.45 21.5071H10.9562C4.91036 21.5071 0 26.4241 0 32.5005V145.313C0 151.389 4.9004 156.306 10.9562 156.306Z" fill="#93A19F"/>
<path d="M0 146.082V134.529H188.407V146.082C188.407 151.729 183.845 156.316 178.207 156.316H10.1992C4.56176 156.306 0 151.729 0 146.082Z" fill="#757D7C"/>
<path d="M14.7309 123.976H173.665C175.996 123.976 177.888 122.077 177.888 119.738V36.2882C177.888 33.9496 175.996 32.0508 173.665 32.0508H14.7309C12.4002 32.0508 10.5078 33.9496 10.5078 36.2882V119.738C10.5078 122.087 12.4002 123.976 14.7309 123.976Z" fill="#D5EBE8"/>
<path d="M60.2989 192.474H128.098C130.17 192.474 131.853 190.786 131.853 188.707V182.62C131.853 180.542 130.17 178.853 128.098 178.853H60.2989C58.2272 178.853 56.5439 180.542 56.5439 182.62V188.707C56.5439 190.786 58.2272 192.474 60.2989 192.474Z" fill="#757D7C"/>
<path d="M94.9501 150.69H93.4661C90.976 150.69 88.9541 148.661 88.9541 146.162V144.673C88.9541 142.175 90.976 140.146 93.4661 140.146H94.9501C97.4402 140.146 99.4621 142.175 99.4621 144.673V146.162C99.4621 148.661 97.4402 150.69 94.9501 150.69Z" fill="#606665"/>
<path d="M136.175 79.3824C142.21 79.3824 147.102 74.4739 147.102 68.419C147.102 62.3641 142.21 57.4556 136.175 57.4556C130.141 57.4556 125.249 62.3641 125.249 68.419C125.249 74.4739 130.141 79.3824 136.175 79.3824Z" fill="#FCE389"/>
<path d="M141.165 84.8691L112.589 123.946H169.74L141.165 84.8691Z" fill="#659990"/>
<path d="M65.9557 99.7002H21.2146C19.7605 99.7002 18.5752 98.5109 18.5752 97.0518V48.7807C18.5752 47.3216 19.7605 46.1323 21.2146 46.1323H65.9557C67.4099 46.1323 68.5952 47.3216 68.5952 48.7807V97.0518C68.5852 98.5109 67.4099 99.7002 65.9557 99.7002Z" fill="#F6F6F6"/>
<path d="M65.4378 46.1323H21.7226C19.9796 46.1323 18.5752 47.5515 18.5752 49.2904V59.5643H68.5952V49.3004C68.5852 47.5515 67.1808 46.1323 65.4378 46.1323Z" fill="#F08181"/>
<path d="M62.3299 55.4967C63.7876 55.4967 64.9693 54.3109 64.9693 52.8482C64.9693 51.3856 63.7876 50.1998 62.3299 50.1998C60.8722 50.1998 59.6904 51.3856 59.6904 52.8482C59.6904 54.3109 60.8722 55.4967 62.3299 55.4967Z" fill="#93A19F"/>
<path d="M53.7644 55.4967C55.2222 55.4967 56.4039 54.3109 56.4039 52.8482C56.4039 51.3856 55.2222 50.1998 53.7644 50.1998C52.3067 50.1998 51.125 51.3856 51.125 52.8482C51.125 54.3109 52.3067 55.4967 53.7644 55.4967Z" fill="#93A19F"/>
<path d="M58.7944 69.898H28.3661C27.5394 69.898 26.8721 69.2284 26.8721 68.3989V67.8093C26.8721 66.9798 27.5394 66.3102 28.3661 66.3102H58.7944C59.6211 66.3102 60.2884 66.9798 60.2884 67.8093V68.3989C60.2884 69.2184 59.6211 69.898 58.7944 69.898Z" fill="#93A19F"/>
<path d="M58.7944 82.5804H28.3661C27.5394 82.5804 26.8721 81.9108 26.8721 81.0813V80.4917C26.8721 79.6622 27.5394 78.9926 28.3661 78.9926H58.7944C59.6211 78.9926 60.2884 79.6622 60.2884 80.4917V81.0813C60.2884 81.9108 59.6211 82.5804 58.7944 82.5804Z" fill="#93A19F"/>
<path d="M103.844 76.7839L69.8701 123.946H137.818L103.844 76.7839Z" fill="#79B9AE"/>
<path d="M117.589 95.8625L103.844 76.7839L89.7607 96.3322L95.0894 100.36L103.844 93.8637L111.344 102.299L117.589 95.8625Z" fill="#EDEDED"/>
<path d="M137.958 111.673L149.631 111.973L143.217 100.15L137.121 110.144C136.733 110.804 137.191 111.653 137.958 111.673Z" fill="#8E4949"/>
<path d="M206.086 68.1991L210.518 76.3742C211.066 77.3836 210.698 78.6429 209.692 79.1925L149.642 111.973L143.228 100.15L203.277 67.3696C204.283 66.81 205.538 67.1897 206.086 68.1991Z" fill="#F08181"/>
<path d="M193.592 72.6503L200.004 84.4752L204.737 81.8913L198.325 70.0664L193.592 72.6503Z" fill="#8E4949"/>
</svg>
