<svg width="857" height="323" viewBox="0 0 857 323" fill="none" xmlns="http://www.w3.org/2000/svg">
<path d="M552.708 34.5248H502.315V71.2188H552.708V34.5248Z" fill="#9D9D9C"/>
<path d="M555.814 95.0518H498.82C496.252 95.0518 494.175 92.9732 494.175 90.4051V35.8438C494.175 33.2756 496.252 31.1971 498.82 31.1971H555.814C558.381 31.1971 560.459 33.2756 560.459 35.8438V90.4051C560.469 92.9732 558.381 95.0518 555.814 95.0518Z" fill="#8E4848"/>
<path d="M526.368 3.93642L487.333 32.3163C486.324 33.0458 486.843 34.6446 488.092 34.6446H566.172C567.421 34.6446 567.94 33.0458 566.932 32.3163L527.896 3.93642C527.437 3.61665 526.817 3.61665 526.368 3.93642Z" fill="#8E4848"/>
<path d="M531.971 51.4127H522.802C521.473 51.4127 520.395 52.492 520.395 53.821V68.4806C520.395 69.8097 521.473 70.8889 522.802 70.8889H531.971C533.3 70.8889 534.379 69.8097 534.379 68.4806V53.821C534.379 52.492 533.3 51.4127 531.971 51.4127Z" fill="#FCE38A"/>
<path d="M550.949 39.9716H543.108C541.78 39.9716 540.701 41.0509 540.701 42.3799V50.2243C540.701 51.5534 541.78 52.6326 543.108 52.6326H550.949C552.278 52.6326 553.357 51.5534 553.357 50.2243V42.3799C553.347 41.0509 552.278 39.9716 550.949 39.9716Z" fill="#FCE38A"/>
<path d="M511.675 39.9716H503.834C502.506 39.9716 501.427 41.0509 501.427 42.3799V50.2243C501.427 51.5534 502.506 52.6326 503.834 52.6326H511.675C513.004 52.6326 514.082 51.5534 514.082 50.2243V42.3799C514.072 41.0509 512.994 39.9716 511.675 39.9716Z" fill="#FCE38A"/>
<path d="M526.038 0.678778L523.151 4.82583C522.622 5.58529 522.822 6.66453 523.581 7.23412L566.692 39.741C567.461 40.3206 568.5 40.1707 569.029 39.4113L571.916 35.2642C572.445 34.5048 572.245 33.4255 571.486 32.8559L528.375 0.349012C527.606 -0.220584 526.568 -0.0806832 526.038 0.678778Z" fill="#F38181"/>
<path d="M528.605 0.678778L531.492 4.82583C532.021 5.58529 531.822 6.66453 531.063 7.23412L487.942 39.741C487.183 40.3206 486.134 40.1707 485.605 39.4113L482.718 35.2642C482.188 34.5048 482.388 33.4255 483.147 32.8559L526.258 0.349012C527.027 -0.220584 528.076 -0.0806832 528.605 0.678778Z" fill="#F38181"/>
<path d="M98.9267 224.36H103.232C103.811 224.36 104.281 223.89 104.281 223.311V30.2878C104.281 29.7082 103.811 29.2385 103.232 29.2385H98.9267C98.3474 29.2385 97.8779 29.7082 97.8779 30.2878V223.311C97.8879 223.89 98.3574 224.36 98.9267 224.36Z" fill="white"/>
<path d="M74.1357 30.4776L92.6646 29.2385V66.3922L74.1357 65.153V30.4776Z" fill="#F38181"/>
<path d="M74.1355 65.153L55.5967 63.9139V31.7168L74.1355 30.4776V65.153Z" fill="white"/>
<path d="M18.5288 61.4356L0 60.2065V35.4341L18.5288 34.195V61.4356Z" fill="#F38181"/>
<path d="M37.0671 62.6748L18.5283 61.4357V34.195L37.0671 32.9559V62.6748Z" fill="white"/>
<path d="M55.5962 63.9139L37.0674 62.6748V32.9559L55.5962 31.7167V63.9139Z" fill="#F38181"/>
<path d="M798.387 267.769H802.293C802.812 267.769 803.242 267.34 803.242 266.82V91.8241C803.242 91.3044 802.812 90.8748 802.293 90.8748H798.387C797.868 90.8748 797.438 91.3044 797.438 91.8241V266.82C797.438 267.34 797.858 267.769 798.387 267.769Z" fill="white"/>
<path d="M775.902 91.994L792.703 90.8748V124.561L775.902 123.432V91.994Z" fill="#F38181"/>
<path d="M775.902 123.432L759.102 122.312V93.1232L775.902 91.994V123.432Z" fill="white"/>
<path d="M725.5 120.064L708.699 118.945V96.4908L725.5 95.3616V120.064Z" fill="#F38181"/>
<path d="M742.301 121.193L725.5 120.064V95.3616L742.301 94.2424V121.193Z" fill="white"/>
<path d="M759.102 122.312L742.301 121.193V94.2424L759.102 93.1232V122.312Z" fill="#F38181"/>
<path d="M627.213 323C638.58 298.258 644.923 270.737 644.923 241.728C644.923 134.104 557.722 46.866 450.145 46.866C342.568 46.866 255.368 134.104 255.368 241.728C255.368 270.737 261.711 298.258 273.078 323H627.213Z" fill="#8CA570"/>
<path d="M857 323C821.201 232.224 732.732 167.99 629.271 167.99C525.809 167.99 437.35 232.224 401.541 323H857Z" fill="white"/>
<path d="M546.375 323C515.75 210.64 413.028 128.018 290.997 128.018C168.977 128.018 66.2541 210.63 35.6191 323H546.375Z" fill="#AEC890"/>
<path d="M244.221 168.47L220.588 222.831C219.958 224.29 221.017 225.919 222.605 225.919H269.861C271.449 225.919 272.518 224.29 271.879 222.831L248.246 168.47C247.497 166.701 244.99 166.701 244.221 168.47Z" fill="#95E1D3"/>
<path d="M251.283 204.514H241.205C239.746 204.514 238.558 205.693 238.558 207.162V223.281C238.558 224.74 239.736 225.929 241.205 225.929H251.283C252.741 225.929 253.93 224.75 253.93 223.281V207.152C253.92 205.693 252.741 204.514 251.283 204.514Z" fill="#79B9AD"/>
<path d="M331.361 168.47L307.728 222.831C307.099 224.29 308.158 225.919 309.746 225.919H357.002C358.59 225.919 359.659 224.29 359.02 222.831L335.387 168.47C334.637 166.701 332.13 166.701 331.361 168.47Z" fill="#F38181"/>
<path d="M338.423 204.514H328.344C326.886 204.514 325.697 205.693 325.697 207.162V223.281C325.697 224.74 326.876 225.929 328.344 225.929H338.423C339.881 225.929 341.07 224.75 341.07 223.281V207.152C341.07 205.693 339.881 204.514 338.423 204.514Z" fill="#BF6868"/>
<path d="M308.528 242.517L309.896 246.484C310.116 247.114 309.806 247.803 309.217 248.033L272.559 262.233C271.969 262.463 271.31 262.143 271.1 261.514L269.732 257.546C269.512 256.917 269.822 256.227 270.411 255.998L307.069 241.798C307.659 241.568 308.318 241.888 308.528 242.517Z" fill="#8E4848"/>
<path d="M271.06 242.617L269.762 246.374C269.522 247.064 269.862 247.813 270.501 248.063L306.959 262.183C307.608 262.433 308.318 262.083 308.557 261.394L309.856 257.636C310.096 256.947 309.756 256.197 309.117 255.948L272.658 241.828C272.009 241.588 271.3 241.938 271.06 242.617Z" fill="#783D3D"/>
<path d="M289.818 253.349C295.644 253.349 300.366 248.625 300.366 242.797C300.366 236.969 295.644 232.244 289.818 232.244C283.993 232.244 279.271 236.969 279.271 242.797C279.271 248.625 283.993 253.349 289.818 253.349Z" fill="#F38181"/>
<path d="M279.271 242.797C279.271 242.797 278.701 233.324 289.818 222.202C289.818 222.202 300.366 231.735 300.366 242.797" fill="#F38181"/>
<path d="M289.818 251.401C293.051 251.401 295.671 248.779 295.671 245.545C295.671 242.311 293.051 239.689 289.818 239.689C286.585 239.689 283.965 242.311 283.965 245.545C283.965 248.779 286.585 251.401 289.818 251.401Z" fill="#FCE38A"/>
<path d="M283.955 245.545C283.955 245.545 283.635 240.289 289.808 234.113C289.808 234.113 295.662 239.409 295.662 245.545" fill="#FCE38A"/>
<path opacity="0.5" d="M217.582 181.86C226.22 181.86 233.224 178.585 233.224 174.545C233.224 170.505 226.22 167.231 217.582 167.231C208.943 167.231 201.939 170.505 201.939 174.545C201.939 178.585 208.943 181.86 217.582 181.86Z" fill="#878787" fill-opacity="0.7"/>
<path d="M217.302 126.629C236.317 126.629 251.732 111.208 251.732 92.1839C251.732 73.1601 236.317 57.7383 217.302 57.7383C198.286 57.7383 182.871 73.1601 182.871 92.1839C182.871 111.208 198.286 126.629 217.302 126.629Z" fill="#F38181"/>
<path d="M219.229 174.545H215.923C215.483 174.545 215.134 174.196 215.134 173.756V85.8483C215.134 85.4087 215.483 85.0589 215.923 85.0589H219.229C219.669 85.0589 220.018 85.4087 220.018 85.8483V173.766C220.018 174.196 219.669 174.545 219.229 174.545Z" fill="#8E4848"/>
<path d="M218.909 108.133L216.222 110.011C215.853 110.271 215.353 110.181 215.104 109.811L203.677 93.4829C203.417 93.1132 203.507 92.6136 203.877 92.3637L206.564 90.4851C206.933 90.2253 207.433 90.3152 207.682 90.6849L219.109 107.013C219.369 107.373 219.279 107.883 218.909 108.133Z" fill="#8E4848"/>
<path d="M215.783 117.456L218.49 119.355C218.85 119.604 219.339 119.514 219.589 119.165L232.874 100.178C233.123 99.8185 233.033 99.3288 232.684 99.079L229.977 97.1803C229.617 96.9305 229.128 97.0204 228.878 97.3702L215.593 116.357C215.334 116.706 215.424 117.206 215.783 117.456Z" fill="#8E4848"/>
<path opacity="0.5" d="M687.264 279.901C695.903 279.901 702.906 276.626 702.906 272.586C702.906 268.546 695.903 265.271 687.264 265.271C678.625 265.271 671.622 268.546 671.622 272.586C671.622 276.626 678.625 279.901 687.264 279.901Z" fill="#878787" fill-opacity="0.7"/>
<path d="M687.004 228.427C705.104 228.427 719.776 213.748 719.776 195.64C719.776 177.533 705.104 162.854 687.004 162.854C668.904 162.854 654.231 177.533 654.231 195.64C654.231 213.748 668.904 228.427 687.004 228.427Z" fill="#9CB87B"/>
<path d="M688.832 274.055H685.686C685.266 274.055 684.937 273.715 684.937 273.305V189.605C684.937 189.185 685.276 188.855 685.686 188.855H688.832C689.252 188.855 689.581 189.195 689.581 189.605V273.305C689.591 273.715 689.252 274.055 688.832 274.055Z" fill="#8E4848"/>
<path d="M688.533 210.82L685.976 212.608C685.626 212.848 685.147 212.768 684.907 212.418L674.019 196.869C673.78 196.52 673.86 196.04 674.209 195.8L676.766 194.012C677.116 193.772 677.595 193.852 677.835 194.201L688.723 209.75C688.962 210.1 688.882 210.58 688.533 210.82Z" fill="#8E4848"/>
<path d="M685.557 219.693L688.134 221.502C688.473 221.742 688.943 221.662 689.183 221.322L701.828 203.245C702.068 202.905 701.988 202.436 701.648 202.196L699.071 200.387C698.732 200.147 698.262 200.227 698.022 200.567L685.377 218.644C685.127 218.984 685.217 219.453 685.557 219.693Z" fill="#8E4848"/>
<path opacity="0.5" d="M154.004 212.718C161.319 212.718 167.249 209.944 167.249 206.523C167.249 203.101 161.319 200.327 154.004 200.327C146.689 200.327 140.759 203.101 140.759 206.523C140.759 209.944 146.689 212.718 154.004 212.718Z" fill="#878787" fill-opacity="0.7"/>
<path d="M153.774 166.691C169.552 166.691 182.342 153.895 182.342 138.111C182.342 122.327 169.552 109.531 153.774 109.531C137.997 109.531 125.207 122.327 125.207 138.111C125.207 153.895 137.997 166.691 153.774 166.691Z" fill="#FCE38A"/>
<path d="M155.383 206.463H152.636C152.276 206.463 151.977 206.173 151.977 205.803V132.845C151.977 132.485 152.266 132.185 152.636 132.185H155.383C155.742 132.185 156.042 132.475 156.042 132.845V205.803C156.032 206.173 155.742 206.463 155.383 206.463Z" fill="#8E4848"/>
<path d="M155.113 151.342L152.886 152.901C152.586 153.111 152.166 153.041 151.957 152.741L142.467 139.19C142.258 138.891 142.328 138.471 142.627 138.261L144.855 136.702C145.154 136.492 145.574 136.562 145.784 136.862L155.273 150.412C155.493 150.712 155.413 151.132 155.113 151.342Z" fill="#8E4848"/>
<path d="M152.516 159.076L154.763 160.655C155.063 160.865 155.473 160.795 155.672 160.495L166.7 144.736C166.909 144.437 166.84 144.027 166.54 143.827L164.292 142.248C163.993 142.038 163.583 142.108 163.384 142.408L152.356 158.167C152.146 158.457 152.216 158.866 152.516 159.076Z" fill="#8E4848"/>
<path opacity="0.5" d="M285.244 189.905C292.35 189.905 298.109 187.212 298.109 183.889C298.109 180.567 292.35 177.874 285.244 177.874C278.139 177.874 272.379 180.567 272.379 183.889C272.379 187.212 278.139 189.905 285.244 189.905Z" fill="#878787" fill-opacity="0.7"/>
<path d="M285.244 148.054C299.499 148.054 311.055 136.493 311.055 122.232C311.055 107.972 299.499 96.4108 285.244 96.4108C270.989 96.4108 259.434 107.972 259.434 122.232C259.434 136.493 270.989 148.054 285.244 148.054Z" fill="#9CB87B"/>
<path d="M286.692 183.989H284.215C283.886 183.989 283.626 183.719 283.626 183.399V117.476C283.626 117.146 283.896 116.886 284.215 116.886H286.692C287.022 116.886 287.282 117.156 287.282 117.476V183.399C287.282 183.729 287.022 183.989 286.692 183.989Z" fill="#8E4848"/>
<path d="M286.453 134.194L284.445 135.603C284.175 135.793 283.796 135.733 283.606 135.453L275.036 123.202C274.846 122.932 274.906 122.552 275.185 122.362L277.193 120.953C277.463 120.764 277.842 120.823 278.032 121.103L286.602 133.355C286.792 133.624 286.722 133.994 286.453 134.194Z" fill="#8E4848"/>
<path d="M284.106 141.179L286.133 142.598C286.403 142.788 286.773 142.718 286.962 142.448L296.921 128.218C297.111 127.948 297.041 127.579 296.771 127.389L294.743 125.97C294.474 125.78 294.104 125.85 293.914 126.12L283.956 140.35C283.766 140.619 283.836 140.989 284.106 141.179Z" fill="#8E4848"/>
<path opacity="0.5" d="M407.235 97.6999C414.252 97.6999 419.94 95.0379 419.94 91.7541C419.94 88.4704 414.252 85.8083 407.235 85.8083C400.218 85.8083 394.529 88.4704 394.529 91.7541C394.529 95.0379 400.218 97.6999 407.235 97.6999Z" fill="#878787" fill-opacity="0.7"/>
<path d="M407.035 57.5384C420.611 57.5384 431.617 46.528 431.617 32.9459C431.617 19.3638 420.611 8.35333 407.035 8.35333C393.459 8.35333 382.453 19.3638 382.453 32.9459C382.453 46.528 393.459 57.5384 407.035 57.5384Z" fill="#F38181"/>
<path d="M408.413 91.7541H406.056C405.746 91.7541 405.486 91.5043 405.486 91.1845V28.4191C405.486 28.1093 405.736 27.8495 406.056 27.8495H408.413C408.723 27.8495 408.982 28.0993 408.982 28.4191V91.1845C408.972 91.4943 408.723 91.7541 408.413 91.7541Z" fill="#8E4848"/>
<path d="M408.183 44.3377L406.265 45.6768C406.006 45.8567 405.646 45.7967 405.466 45.5369L397.306 33.8752C397.126 33.6154 397.186 33.2556 397.445 33.0757L399.363 31.7367C399.623 31.5568 399.982 31.6168 400.162 31.8766L408.323 43.5383C408.513 43.7981 408.443 44.1479 408.183 44.3377Z" fill="#8E4848"/>
<path d="M405.946 50.983L407.884 52.3421C408.144 52.522 408.493 52.462 408.673 52.2022L418.162 38.6518C418.342 38.392 418.282 38.0422 418.022 37.8624L416.084 36.5033C415.825 36.3235 415.475 36.3834 415.295 36.6432L405.806 50.1936C405.636 50.4534 405.696 50.8032 405.946 50.983Z" fill="#8E4848"/>
<path opacity="0.5" d="M567.621 138.331C573.385 138.331 578.059 136.148 578.059 133.455C578.059 130.761 573.385 128.578 567.621 128.578C561.856 128.578 557.183 130.761 557.183 133.455C557.183 136.148 561.856 138.331 567.621 138.331Z" fill="#878787" fill-opacity="0.7"/>
<path d="M567.461 104.925C578.781 104.925 587.958 95.7441 587.958 84.4193C587.958 73.0945 578.781 63.9138 567.461 63.9138C556.141 63.9138 546.965 73.0945 546.965 84.4193C546.965 95.7441 556.141 104.925 567.461 104.925Z" fill="#9CB87B"/>
<path d="M568.61 133.455H566.642C566.383 133.455 566.173 133.245 566.173 132.985V80.642C566.173 80.3822 566.383 80.1723 566.642 80.1723H568.61C568.87 80.1723 569.08 80.3822 569.08 80.642V132.985C569.08 133.245 568.87 133.455 568.61 133.455Z" fill="#8E4848"/>
<path d="M568.42 93.9126L566.822 95.0318C566.602 95.1817 566.303 95.1317 566.153 94.9119L559.351 85.1888C559.201 84.9689 559.251 84.6692 559.47 84.5193L561.069 83.4001C561.288 83.2502 561.588 83.3001 561.738 83.52L568.54 93.2431C568.69 93.4629 568.63 93.7627 568.42 93.9126Z" fill="#8E4848"/>
<path d="M566.552 99.4587L568.17 100.588C568.38 100.738 568.679 100.688 568.829 100.468L576.74 89.166C576.89 88.9562 576.84 88.6564 576.62 88.5065L575.002 87.3773C574.792 87.2274 574.493 87.2774 574.343 87.4972L566.432 98.7992C566.282 99.019 566.342 99.3088 566.552 99.4587Z" fill="#8E4848"/>
<path opacity="0.5" d="M631.258 212.518C637.652 212.518 642.835 210.093 642.835 207.102C642.835 204.111 637.652 201.686 631.258 201.686C624.865 201.686 619.682 204.111 619.682 207.102C619.682 210.093 624.865 212.518 631.258 212.518Z" fill="#878787" fill-opacity="0.7"/>
<path d="M631.098 178.572C642.418 178.572 651.595 169.392 651.595 158.067C651.595 146.742 642.418 137.562 631.098 137.562C619.778 137.562 610.602 146.742 610.602 158.067C610.602 169.392 619.778 178.572 631.098 178.572Z" fill="#FCE38A"/>
<path d="M632.248 207.102H630.28C630.02 207.102 629.811 206.892 629.811 206.633V154.29C629.811 154.03 630.02 153.82 630.28 153.82H632.248C632.507 153.82 632.717 154.03 632.717 154.29V206.633C632.717 206.892 632.507 207.102 632.248 207.102Z" fill="#8E4848"/>
<path d="M632.057 167.56L630.459 168.68C630.239 168.829 629.939 168.779 629.79 168.56L622.987 158.837C622.837 158.617 622.887 158.317 623.107 158.167L624.705 157.048C624.925 156.898 625.225 156.948 625.375 157.168L632.177 166.891C632.327 167.111 632.267 167.41 632.057 167.56Z" fill="#8E4848"/>
<path d="M630.189 173.106L631.807 174.236C632.017 174.385 632.317 174.335 632.466 174.116L640.377 162.814C640.527 162.604 640.477 162.304 640.257 162.154L638.639 161.025C638.43 160.875 638.13 160.925 637.98 161.145L630.069 172.447C629.929 172.667 629.979 172.956 630.189 173.106Z" fill="#8E4848"/>
<path opacity="0.5" d="M754.537 244.006C761.107 244.006 766.433 241.514 766.433 238.44C766.433 235.366 761.107 232.874 754.537 232.874C747.967 232.874 742.641 235.366 742.641 238.44C742.641 241.514 747.967 244.006 754.537 244.006Z" fill="#878787" fill-opacity="0.7"/>
<path d="M754.338 204.234C767.914 204.234 778.92 193.224 778.92 179.642C778.92 166.06 767.914 155.049 754.338 155.049C740.762 155.049 729.756 166.06 729.756 179.642C729.756 193.224 740.762 204.234 754.338 204.234Z" fill="#F38181"/>
<path d="M755.716 238.44H753.358C753.049 238.44 752.789 238.19 752.789 237.87V175.105C752.789 174.795 753.039 174.535 753.358 174.535H755.716C756.025 174.535 756.285 174.785 756.285 175.105V237.87C756.285 238.19 756.035 238.44 755.716 238.44Z" fill="#8E4848"/>
<path d="M755.497 191.024L753.579 192.363C753.319 192.543 752.959 192.483 752.78 192.223L744.619 180.561C744.439 180.301 744.499 179.942 744.759 179.762L746.677 178.423C746.936 178.243 747.296 178.303 747.476 178.563L755.636 190.224C755.816 190.484 755.756 190.844 755.497 191.024Z" fill="#8E4848"/>
<path d="M753.259 197.679L755.197 199.038C755.456 199.218 755.806 199.158 755.986 198.898L765.475 185.348C765.655 185.088 765.595 184.738 765.335 184.558L763.397 183.199C763.138 183.019 762.788 183.079 762.608 183.339L753.119 196.889C752.939 197.149 752.999 197.499 753.259 197.679Z" fill="#8E4848"/>
</svg>
