<svg width="72" height="72" viewBox="0 0 72 72" fill="none" xmlns="http://www.w3.org/2000/svg">
<path d="M36 72C55.8823 72 72 55.8823 72 36C72 16.1177 55.8823 0 36 0C16.1177 0 0 16.1177 0 36C0 55.8823 16.1177 72 36 72Z" fill="white"/>
<path d="M36.0004 72C40.8633 72 45.5012 71.034 49.733 69.2859C46.5304 63.9591 41.4506 60.515 35.7232 60.515C30.0617 60.515 25.0314 63.8796 21.8232 69.0993C26.173 70.9654 30.9646 72 36.0004 72Z" fill="#174A42"/>
<path d="M35.7226 65.5124C33.615 65.5124 31.9053 63.8027 31.9053 61.6951V57.5951C31.9053 55.4874 33.615 53.7777 35.7226 53.7777C37.8303 53.7777 39.54 55.4874 39.54 57.5951V61.6951C39.54 63.8027 37.8303 65.5124 35.7226 65.5124Z" fill="#FDD39D"/>
<path d="M35.7226 52.7102C33.615 52.7102 31.9053 54.4199 31.9053 56.5275V59.6231C32.7066 59.7548 33.5272 59.8289 34.3669 59.8289H36.7243C37.6876 59.8289 38.6289 59.7329 39.5427 59.56V56.5275C39.54 54.4199 37.8303 52.7102 35.7226 52.7102Z" fill="#F6AD81"/>
<path d="M19.7923 38.297C21.5626 38.297 22.9976 36.8619 22.9976 35.0916C22.9976 33.3214 21.5626 31.8863 19.7923 31.8863C18.022 31.8863 16.5869 33.3214 16.5869 35.0916C16.5869 36.8619 18.022 38.297 19.7923 38.297Z" fill="#FDD39D"/>
<path d="M19.7917 37.0127C20.7526 37.0127 21.5316 36.2337 21.5316 35.2728C21.5316 34.3118 20.7526 33.5329 19.7917 33.5329C18.8307 33.5329 18.0518 34.3118 18.0518 35.2728C18.0518 36.2337 18.8307 37.0127 19.7917 37.0127Z" fill="#F6AB84"/>
<path d="M51.6507 38.297C53.421 38.297 54.856 36.8619 54.856 35.0916C54.856 33.3214 53.421 31.8863 51.6507 31.8863C49.8804 31.8863 48.4453 33.3214 48.4453 35.0916C48.4453 36.8619 49.8804 38.297 51.6507 38.297Z" fill="#FDD39D"/>
<path d="M51.651 37.0127C52.612 37.0127 53.3909 36.2337 53.3909 35.2728C53.3909 34.3118 52.612 33.5329 51.651 33.5329C50.6901 33.5329 49.9111 34.3118 49.9111 35.2728C49.9111 36.2337 50.6901 37.0127 51.651 37.0127Z" fill="#F6AB84"/>
<path d="M36.722 57.3865H34.3647C26.1207 57.3865 19.4355 50.7013 19.4355 42.4574V26.0903C19.4355 17.8463 26.1207 11.1612 34.3647 11.1612H36.722C44.966 11.1612 51.6511 17.8463 51.6511 26.0903V42.4574C51.6511 50.7041 44.9687 57.3865 36.722 57.3865Z" fill="#FDD39D"/>
<path d="M27.8301 36.859C28.7319 36.859 29.463 36.1279 29.463 35.2261C29.463 34.3243 28.7319 33.5932 27.8301 33.5932C26.9283 33.5932 26.1973 34.3243 26.1973 35.2261C26.1973 36.1279 26.9283 36.859 27.8301 36.859Z" fill="black"/>
<path d="M28.1869 35.4155C28.487 35.4155 28.7303 35.1722 28.7303 34.8721C28.7303 34.572 28.487 34.3287 28.1869 34.3287C27.8868 34.3287 27.6436 34.572 27.6436 34.8721C27.6436 35.1722 27.8868 35.4155 28.1869 35.4155Z" fill="white"/>
<path d="M30.7093 31.5515H24.9517C24.5977 31.5515 24.3096 31.2633 24.3096 30.9093V30.8873C24.3096 30.5333 24.5977 30.2452 24.9517 30.2452H30.7093C31.0633 30.2452 31.3515 30.5333 31.3515 30.8873V30.9093C31.3515 31.266 31.0633 31.5515 30.7093 31.5515Z" fill="#604125"/>
<path d="M45.9457 31.5515H40.1881C39.8341 31.5515 39.5459 31.2633 39.5459 30.9093V30.8873C39.5459 30.5333 39.8341 30.2452 40.1881 30.2452H45.9457C46.2997 30.2452 46.5878 30.5333 46.5878 30.8873V30.9093C46.5878 31.266 46.2997 31.5515 45.9457 31.5515Z" fill="#604125"/>
<path d="M31.626 46.2857C31.626 48.3934 33.3357 50.1031 35.4433 50.1031C37.551 50.1031 39.2607 48.3934 39.2607 46.2857H31.626Z" fill="white"/>
<path d="M43.2559 36.859C44.1577 36.859 44.8888 36.1279 44.8888 35.2261C44.8888 34.3243 44.1577 33.5932 43.2559 33.5932C42.3541 33.5932 41.623 34.3243 41.623 35.2261C41.623 36.1279 42.3541 36.859 43.2559 36.859Z" fill="black"/>
<path d="M43.6127 35.4155C43.9128 35.4155 44.1561 35.1722 44.1561 34.8721C44.1561 34.572 43.9128 34.3287 43.6127 34.3287C43.3126 34.3287 43.0693 34.572 43.0693 34.8721C43.0693 35.1722 43.3126 35.4155 43.6127 35.4155Z" fill="white"/>
<path d="M52.6857 38.4342C53.0676 38.4342 53.3773 38.1246 53.3773 37.7426C53.3773 37.3607 53.0676 37.0511 52.6857 37.0511C52.3038 37.0511 51.9941 37.3607 51.9941 37.7426C51.9941 38.1246 52.3038 38.4342 52.6857 38.4342Z" fill="#292929"/>
<path d="M46.4777 14.7946C45.5254 16.3891 44.9766 18.2552 44.9766 20.2476C44.9766 24.7236 47.7401 28.5519 51.6535 30.1299V26.0903C51.6508 21.5759 49.6447 17.5335 46.4777 14.7946Z" fill="#DCAC7B"/>
<path d="M19.4355 26.0903V30.0476C23.2419 28.4229 25.9094 24.6467 25.9094 20.2476C25.9094 18.3019 25.3852 16.4796 24.4741 14.9099C21.3868 17.646 19.4355 21.639 19.4355 26.0903Z" fill="#DCAC7B"/>
<path d="M25.7527 22.1961C29.0446 22.1961 31.7133 19.5274 31.7133 16.2354C31.7133 12.9434 29.0446 10.2747 25.7527 10.2747C22.4607 10.2747 19.792 12.9434 19.792 16.2354C19.792 19.5274 22.4607 22.1961 25.7527 22.1961Z" fill="#604125"/>
<path d="M30.9529 18.6724C34.2206 18.6724 36.8696 16.0233 36.8696 12.7556C36.8696 9.48787 34.2206 6.83885 30.9529 6.83885C27.6852 6.83885 25.0361 9.48787 25.0361 12.7556C25.0361 16.0233 27.6852 18.6724 30.9529 18.6724Z" fill="#604125"/>
<path d="M38.8102 18.3129C42.0309 18.3129 44.6419 15.7019 44.6419 12.4812C44.6419 9.26042 42.0309 6.64949 38.8102 6.64949C35.5894 6.64949 32.9785 9.26042 32.9785 12.4812C32.9785 15.7019 35.5894 18.3129 38.8102 18.3129Z" fill="#604125"/>
<path d="M44.6421 21.4359C47.5522 21.4359 49.9112 19.0768 49.9112 16.1668C49.9112 13.2568 47.5522 10.8977 44.6421 10.8977C41.7321 10.8977 39.373 13.2568 39.373 16.1668C39.373 19.0768 41.7321 21.4359 44.6421 21.4359Z" fill="#604125"/>
<path d="M34.6057 23.066C37.6537 23.066 40.1246 20.5952 40.1246 17.5472C40.1246 14.4992 37.6537 12.0284 34.6057 12.0284C31.5578 12.0284 29.0869 14.4992 29.0869 17.5472C29.0869 20.5952 31.5578 23.066 34.6057 23.066Z" fill="#604125"/>
<path d="M42.1908 25.4289C44.8629 25.4289 47.029 23.2627 47.029 20.5906C47.029 17.9186 44.8629 15.7524 42.1908 15.7524C39.5187 15.7524 37.3525 17.9186 37.3525 20.5906C37.3525 23.2627 39.5187 25.4289 42.1908 25.4289Z" fill="#604125"/>
<path d="M47.9046 24.5864C50.5767 24.5864 52.7429 22.4202 52.7429 19.7481C52.7429 17.076 50.5767 14.9099 47.9046 14.9099C45.2326 14.9099 43.0664 17.076 43.0664 19.7481C43.0664 22.4202 45.2326 24.5864 47.9046 24.5864Z" fill="#604125"/>
<path d="M22.2541 23.2444C24.185 23.2444 25.7503 21.6791 25.7503 19.7481C25.7503 17.8172 24.185 16.2519 22.2541 16.2519C20.3231 16.2519 18.7578 17.8172 18.7578 19.7481C18.7578 21.6791 20.3231 23.2444 22.2541 23.2444Z" fill="#604125"/>
<path d="M45.8438 21.8777C45.8438 21.8777 49.2769 23.2746 50.4954 20.8431" stroke="#D5ADA2" stroke-miterlimit="10" stroke-linecap="round"/>
<path d="M42.3232 23.6012C42.3232 23.6012 43.5143 23.678 44.1921 22.8876" stroke="#D5ADA2" stroke-miterlimit="10" stroke-linecap="round"/>
<path d="M45.1246 39.8146C46.0385 39.8146 46.7794 39.3526 46.7794 38.7827C46.7794 38.2129 46.0385 37.7509 45.1246 37.7509C44.2106 37.7509 43.4697 38.2129 43.4697 38.7827C43.4697 39.3526 44.2106 39.8146 45.1246 39.8146Z" fill="#F9C095"/>
<path d="M25.9644 39.8146C26.8783 39.8146 27.6192 39.3526 27.6192 38.7827C27.6192 38.2129 26.8783 37.7509 25.9644 37.7509C25.0505 37.7509 24.3096 38.2129 24.3096 38.7827C24.3096 39.3526 25.0505 39.8146 25.9644 39.8146Z" fill="#F9C095"/>
</svg>
