<svg width="150" height="150" viewBox="0 0 150 150" fill="none" xmlns="http://www.w3.org/2000/svg">
<path d="M75 150C116.421 150 150 116.421 150 75C150 33.5786 116.421 0 75 0C33.5786 0 0 33.5786 0 75C0 116.421 33.5786 150 75 150Z" fill="#E9F0EF"/>
<path d="M74.9996 150C85.1307 150 94.793 147.987 103.609 144.346C96.937 133.248 86.3543 126.073 74.4222 126.073C62.6273 126.073 52.1474 133.082 45.4639 143.957C54.5258 147.845 64.5083 150 74.9996 150Z" fill="#174A42"/>
<path d="M74.4225 136.484C70.0316 136.484 66.4697 132.922 66.4697 128.531V119.99C66.4697 115.599 70.0316 112.037 74.4225 112.037C78.8135 112.037 82.3754 115.599 82.3754 119.99V128.531C82.3754 132.922 78.8135 136.484 74.4225 136.484Z" fill="#FDD39D"/>
<path d="M74.4225 109.813C70.0316 109.813 66.4697 113.375 66.4697 117.766V124.215C68.1392 124.489 69.8487 124.644 71.5982 124.644H76.5094C78.5162 124.644 80.4772 124.444 82.3811 124.083V117.766C82.3754 113.375 78.8135 109.813 74.4225 109.813Z" fill="#F6AD81"/>
<path d="M41.2335 79.7854C44.9216 79.7854 47.9114 76.7957 47.9114 73.1076C47.9114 69.4195 44.9216 66.4297 41.2335 66.4297C37.5454 66.4297 34.5557 69.4195 34.5557 73.1076C34.5557 76.7957 37.5454 79.7854 41.2335 79.7854Z" fill="#FDD39D"/>
<path d="M41.2332 77.1097C43.2351 77.1097 44.858 75.4868 44.858 73.4849C44.858 71.483 43.2351 69.8601 41.2332 69.8601C39.2313 69.8601 37.6084 71.483 37.6084 73.4849C37.6084 75.4868 39.2313 77.1097 41.2332 77.1097Z" fill="#F6AB84"/>
<path d="M107.606 79.7854C111.294 79.7854 114.283 76.7957 114.283 73.1076C114.283 69.4195 111.294 66.4297 107.606 66.4297C103.918 66.4297 100.928 69.4195 100.928 73.1076C100.928 76.7957 103.918 79.7854 107.606 79.7854Z" fill="#FDD39D"/>
<path d="M107.606 77.1097C109.608 77.1097 111.231 75.4868 111.231 73.4849C111.231 71.483 109.608 69.8601 107.606 69.8601C105.604 69.8601 103.981 71.483 103.981 73.4849C103.981 75.4868 105.604 77.1097 107.606 77.1097Z" fill="#F6AB84"/>
<path d="M76.5037 119.555H71.5925C54.4177 119.555 40.4902 105.628 40.4902 88.4529V54.3547C40.4902 37.1798 54.4177 23.2524 71.5925 23.2524H76.5037C93.6786 23.2524 107.606 37.1798 107.606 54.3547V88.4529C107.606 105.633 93.6843 119.555 76.5037 119.555Z" fill="#FDD39D"/>
<path d="M57.9799 76.7895C59.8587 76.7895 61.3818 75.2665 61.3818 73.3877C61.3818 71.5089 59.8587 69.9859 57.9799 69.9859C56.1012 69.9859 54.5781 71.5089 54.5781 73.3877C54.5781 75.2665 56.1012 76.7895 57.9799 76.7895Z" fill="black"/>
<path d="M58.7229 73.7822C59.3481 73.7822 59.8549 73.2754 59.8549 72.6502C59.8549 72.025 59.3481 71.5181 58.7229 71.5181C58.0976 71.5181 57.5908 72.025 57.5908 72.6502C57.5908 73.2754 58.0976 73.7822 58.7229 73.7822Z" fill="white"/>
<path d="M63.9774 65.7322H51.9824C51.2448 65.7322 50.6445 65.1319 50.6445 64.3943V64.3486C50.6445 63.6111 51.2448 63.0107 51.9824 63.0107H63.9774C64.7149 63.0107 65.3152 63.6111 65.3152 64.3486V64.3943C65.3152 65.1376 64.7149 65.7322 63.9774 65.7322Z" fill="#604125"/>
<path d="M95.7195 65.7322H83.7246C82.987 65.7322 82.3867 65.1319 82.3867 64.3943V64.3486C82.3867 63.6111 82.987 63.0107 83.7246 63.0107H95.7195C96.4571 63.0107 97.0574 63.6111 97.0574 64.3486V64.3943C97.0574 65.1376 96.4571 65.7322 95.7195 65.7322Z" fill="#604125"/>
<path d="M65.8867 96.4286C65.8867 100.82 69.4486 104.381 73.8395 104.381C78.2304 104.381 81.7923 100.82 81.7923 96.4286H65.8867Z" fill="white"/>
<path d="M90.1167 76.7895C91.9954 76.7895 93.5185 75.2665 93.5185 73.3877C93.5185 71.5089 91.9954 69.9859 90.1167 69.9859C88.2379 69.9859 86.7148 71.5089 86.7148 73.3877C86.7148 75.2665 88.2379 76.7895 90.1167 76.7895Z" fill="black"/>
<path d="M90.8596 73.7822C91.4848 73.7822 91.9916 73.2754 91.9916 72.6502C91.9916 72.025 91.4848 71.5181 90.8596 71.5181C90.2344 71.5181 89.7275 72.025 89.7275 72.6502C89.7275 73.2754 90.2344 73.7822 90.8596 73.7822Z" fill="white"/>
<path d="M109.761 80.0713C110.557 80.0713 111.202 79.4262 111.202 78.6305C111.202 77.8348 110.557 77.1898 109.761 77.1898C108.965 77.1898 108.32 77.8348 108.32 78.6305C108.32 79.4262 108.965 80.0713 109.761 80.0713Z" fill="#292929"/>
<path d="M96.8286 30.8221C94.8446 34.1439 93.7012 38.0317 93.7012 42.1825C93.7012 51.5075 99.4585 59.4831 107.611 62.7706V54.3547C107.606 44.9497 103.426 36.528 96.8286 30.8221Z" fill="#DCAC7B"/>
<path d="M40.4902 54.3547V62.5991C48.4202 59.2144 53.9774 51.3474 53.9774 42.1825C53.9774 38.1289 52.8854 34.3326 50.9873 31.0623C44.5553 36.7624 40.4902 45.0812 40.4902 54.3547Z" fill="#DCAC7B"/>
<path d="M53.6514 46.2418C60.5097 46.2418 66.0695 40.6821 66.0695 33.8238C66.0695 26.9655 60.5097 21.4057 53.6514 21.4057C46.7931 21.4057 41.2334 26.9655 41.2334 33.8238C41.2334 40.6821 46.7931 46.2418 53.6514 46.2418Z" fill="#604125"/>
<path d="M64.4858 38.9008C71.2935 38.9008 76.8123 33.382 76.8123 26.5742C76.8123 19.7664 71.2935 14.2476 64.4858 14.2476C57.678 14.2476 52.1592 19.7664 52.1592 26.5742C52.1592 33.382 57.678 38.9008 64.4858 38.9008Z" fill="#604125"/>
<path d="M80.8544 38.1518C87.5643 38.1518 93.0038 32.7123 93.0038 26.0024C93.0038 19.2925 87.5643 13.8531 80.8544 13.8531C74.1445 13.8531 68.7051 19.2925 68.7051 26.0024C68.7051 32.7123 74.1445 38.1518 80.8544 38.1518Z" fill="#604125"/>
<path d="M93.0036 44.6581C99.0662 44.6581 103.981 39.7434 103.981 33.6808C103.981 27.6182 99.0662 22.7036 93.0036 22.7036C86.9411 22.7036 82.0264 27.6182 82.0264 33.6808C82.0264 39.7434 86.9411 44.6581 93.0036 44.6581Z" fill="#604125"/>
<path d="M72.0952 48.0542C78.4451 48.0542 83.5928 42.9066 83.5928 36.5566C83.5928 30.2067 78.4451 25.0591 72.0952 25.0591C65.7453 25.0591 60.5977 30.2067 60.5977 36.5566C60.5977 42.9066 65.7453 48.0542 72.0952 48.0542Z" fill="#604125"/>
<path d="M87.898 52.9768C93.4649 52.9768 97.9777 48.464 97.9777 42.8972C97.9777 37.3303 93.4649 32.8175 87.898 32.8175C82.3312 32.8175 77.8184 37.3303 77.8184 42.8972C77.8184 48.464 82.3312 52.9768 87.898 52.9768Z" fill="#604125"/>
<path d="M99.8013 51.2216C105.368 51.2216 109.881 46.7088 109.881 41.1419C109.881 35.5751 105.368 31.0623 99.8013 31.0623C94.2345 31.0623 89.7217 35.5751 89.7217 41.1419C89.7217 46.7088 94.2345 51.2216 99.8013 51.2216Z" fill="#604125"/>
<path d="M46.362 48.4258C50.3848 48.4258 53.6459 45.1647 53.6459 41.1419C53.6459 37.1191 50.3848 33.858 46.362 33.858C42.3392 33.858 39.0781 37.1191 39.0781 41.1419C39.0781 45.1647 42.3392 48.4258 46.362 48.4258Z" fill="#604125"/>
<path d="M95.5078 45.5786C95.5078 45.5786 102.66 48.4887 105.199 43.4232" stroke="#D5ADA2" stroke-miterlimit="10" stroke-linecap="round"/>
<path d="M88.1729 49.1691C88.1729 49.1691 90.6542 49.3291 92.0664 47.6826" stroke="#D5ADA2" stroke-miterlimit="10" stroke-linecap="round"/>
<path d="M94.0101 82.9471C95.9141 82.9471 97.4576 81.9846 97.4576 80.7974C97.4576 79.6101 95.9141 78.6476 94.0101 78.6476C92.106 78.6476 90.5625 79.6101 90.5625 80.7974C90.5625 81.9846 92.106 82.9471 94.0101 82.9471Z" fill="#F9C095"/>
<path d="M54.0921 82.9471C55.9961 82.9471 57.5396 81.9846 57.5396 80.7974C57.5396 79.6101 55.9961 78.6476 54.0921 78.6476C52.1881 78.6476 50.6445 79.6101 50.6445 80.7974C50.6445 81.9846 52.1881 82.9471 54.0921 82.9471Z" fill="#F9C095"/>
</svg>
